<svg width="48" height="48" viewBox="0 0 48 48" fill="none" xmlns="http://www.w3.org/2000/svg">
<circle cx="24" cy="24" r="24" fill="#E8DEF8" fill-opacity="0.5"/>
<path fill-rule="evenodd" clip-rule="evenodd" d="M17.9171 11.0198C17.7987 11.0457 17.6319 11.2658 17.5295 11.5314C17.4194 11.8168 17.3377 12.1955 17.0429 13.7856C17.0053 13.9881 16.9405 14.3268 16.8987 14.5382C16.8284 14.8935 16.7585 15.266 16.6403 15.9154C16.6146 16.0563 16.5791 16.2437 16.5614 16.3318C16.5263 16.5059 16.5287 16.4918 16.3407 17.6129C16.1997 18.4538 16.1414 18.8152 16.0643 19.3264C16.0365 19.5114 15.9934 19.7924 15.9686 19.9509C15.8774 20.5352 15.8223 20.9929 15.8398 21.0213C15.8497 21.0373 15.8433 21.0552 15.8254 21.0612C15.8075 21.0671 16.2139 21.0677 16.7284 21.0625C17.7887 21.0518 17.7247 21.0702 17.7757 20.7612C18.2947 17.6192 22.8182 17.5633 23.4013 20.6916C23.4305 20.8479 23.4691 20.9938 23.4872 21.0159C23.5383 21.0784 26.8524 21.0737 26.9044 21.011C26.9248 20.9864 26.9561 20.8747 26.9739 20.7628C27.478 17.5928 32.0987 17.5814 32.6096 20.749C32.662 21.0736 32.6284 21.0601 33.3576 21.0492C33.7028 21.044 33.9901 21.0471 33.996 21.0559C34.0019 21.0647 34.0016 21.052 33.9954 21.0277C33.9891 21.0034 33.9627 20.8485 33.9366 20.6834C33.9105 20.5184 33.8675 20.25 33.8411 20.0871C33.774 19.6734 33.7059 19.2514 33.6668 19.0061C33.6485 18.8916 33.619 18.7187 33.6012 18.6218C33.5833 18.5249 33.4746 17.8691 33.3595 17.1645C32.8224 13.8772 32.8008 13.766 32.3314 11.8639C32.1565 11.1555 32.0492 10.9979 31.7433 11C31.5132 11.0016 31.123 11.303 30.8321 11.7038C30.679 11.9145 29.4025 14.1626 29.0337 14.8708C28.796 15.3272 28.7684 15.338 28.1241 15.227C25.9748 14.8564 24.0288 14.8569 22.1091 15.2284C21.4998 15.3464 21.5894 15.4027 21.0763 14.5787C19.1786 11.5314 18.5931 10.8717 17.9171 11.0198ZM20.2514 18.6223C18.3368 18.8875 17.3534 21.1134 18.4635 22.6692C19.7122 24.419 22.3674 24.0244 23.069 21.9847C23.6722 20.2312 22.1085 18.3652 20.2514 18.6223ZM29.4413 18.6226C27.3378 18.9132 26.453 21.4979 27.9444 22.9953C29.6293 24.6869 32.4698 23.464 32.3749 21.0879C32.3139 19.5604 30.9499 18.4142 29.4413 18.6226ZM21.078 20.1463C21.5177 20.3466 21.778 20.7928 21.7427 21.286C21.6605 22.4351 20.0756 22.739 19.5658 21.7034C19.0889 20.7347 20.095 19.6987 21.078 20.1463ZM30.3335 20.1269C30.8615 20.3934 31.1417 21.0526 30.9461 21.5683C30.4965 22.7538 28.7642 22.554 28.6474 21.3031C28.5665 20.4367 29.5661 19.7394 30.3335 20.1269ZM15.7613 21.3449C15.7613 21.402 15.7404 21.5872 15.715 21.7567C15.6599 22.1227 15.4705 23.5356 15.328 24.643C15.3019 24.8456 15.2659 25.1122 15.2478 25.2355C15.2298 25.3588 15.2001 25.5894 15.182 25.748C15.1638 25.9065 15.1278 26.2092 15.102 26.4206C15.0156 27.1273 14.8783 28.2993 14.8168 28.8547C14.7738 29.243 14.747 29.4777 14.6233 30.5522C14.5644 31.0636 14.4966 31.6796 14.4296 32.3137C14.4018 32.5779 14.3673 32.9022 14.3532 33.0343C14.339 33.1664 14.3091 33.4691 14.2868 33.7069C14.2644 33.9447 14.2375 34.1491 14.2271 34.1612C14.2001 34.1923 13.2342 34.0138 12.785 33.8948C11.2348 33.4837 10.5485 32.0055 11.3115 30.7212C11.5037 30.3975 11.7831 30.1348 12.4461 29.6539C13.1095 29.1726 13.2041 29.0666 13.2239 28.7828C13.2607 28.257 12.5167 28.0116 11.7059 28.2819C7.96839 29.5284 8.14719 34.8301 11.9665 36.009C12.5058 36.1755 13.107 36.2723 13.8845 36.3177C14.2568 36.3395 14.4804 36.3766 15.0392 36.5093C15.5709 36.6356 16.4832 36.6875 20.9498 36.8455C22.1289 36.8871 28.8921 36.8874 29.8984 36.8457C30.323 36.8282 31.0306 36.7992 31.471 36.7814C32.7082 36.7313 34.6064 36.6006 35.1382 36.5289C35.9273 36.4226 35.9941 36.2504 35.8299 34.7478C35.803 34.5012 35.7586 34.0832 35.7313 33.819C35.704 33.5548 35.6594 33.1296 35.6322 32.8742C35.605 32.6188 35.5625 32.2152 35.5377 31.9774C35.4442 31.0801 35.3344 30.1006 35.2521 29.4312C35.1306 28.4431 35.0932 28.1682 34.9147 26.949C34.8592 26.5703 34.8006 26.1667 34.7844 26.0522C34.7682 25.9377 34.7403 25.7576 34.7225 25.6519C34.7046 25.5462 34.6174 24.9841 34.5286 24.4028C34.4398 23.8215 34.3314 23.1225 34.2877 22.8495C34.244 22.5764 34.1874 22.2233 34.1619 22.0648C34.1365 21.9062 34.0975 21.6573 34.0753 21.5116C34.0419 21.2925 34.0264 21.2509 33.986 21.2709C33.9592 21.2842 33.6633 21.3024 33.3286 21.3116C32.6296 21.3306 32.6528 21.3229 32.6248 21.5443C32.4373 23.0276 31.1216 24.1122 29.6158 24.0248C28.2804 23.9472 27.1578 22.9187 26.9713 21.602C26.9271 21.2901 27.0621 21.3121 25.1935 21.3121C23.3282 21.3121 23.4666 21.2892 23.4171 21.6055C22.9227 24.761 18.3521 24.8295 17.7918 21.6898C17.7218 21.2975 17.8101 21.3304 16.7767 21.3121C16.2799 21.3033 15.8482 21.2838 15.8174 21.2686C15.7699 21.2454 15.7613 21.257 15.7613 21.3449ZM25.3549 23.6527C25.6137 23.9177 25.7055 23.951 26.1101 23.9264C26.4936 23.9031 26.5424 23.9281 26.4194 24.0844C26.2264 24.3299 25.7807 24.3102 25.336 24.0365C25.1385 23.9149 25.1011 23.9149 24.9213 24.0349C24.4873 24.3245 23.9573 24.3336 23.8003 24.0543C23.7382 23.9438 23.7967 23.8956 23.9605 23.9225C24.4443 24.0019 24.5979 23.9584 24.8653 23.6666C25.0762 23.4363 25.1417 23.4344 25.3549 23.6527Z" fill="#40416F"/>
<path fill-rule="evenodd" clip-rule="evenodd" d="M20.3093 18.3673C19.0298 18.4889 17.9964 19.462 17.7773 20.7516C17.721 21.0827 17.8029 21.059 16.7525 21.0488C16.2459 21.0439 15.8381 21.0507 15.8463 21.0639C15.8545 21.0771 15.8477 21.0879 15.8313 21.0879C15.7766 21.0879 15.8001 21.2494 15.8593 21.2811C15.8926 21.2989 16.2842 21.3121 16.778 21.3121C17.7912 21.3121 17.7203 21.2857 17.7921 21.6898C18.3494 24.8293 22.9227 24.7607 23.4171 21.6055C23.4666 21.2892 23.3281 21.3121 25.1935 21.3121C27.0621 21.3121 26.9271 21.2901 26.9713 21.602C27.1578 22.9187 28.2804 23.9472 29.6158 24.0248C31.1218 24.1122 32.4373 23.0277 32.6249 21.5438C32.6536 21.3168 32.6676 21.3121 33.3286 21.3121C34.0002 21.3121 34.05 21.2928 33.9894 21.0559C33.9871 21.0471 33.7028 21.044 33.3575 21.0492C32.6284 21.06 32.662 21.0736 32.6096 20.749C32.0987 17.5814 27.478 17.5928 26.9739 20.7628C26.9561 20.8747 26.9248 20.9864 26.9044 21.011C26.8523 21.0737 23.5383 21.0784 23.4872 21.0159C23.4691 20.9938 23.4305 20.8479 23.4013 20.6916C23.1272 19.2213 21.8024 18.2254 20.3093 18.3673ZM21.261 18.6876C23.1822 19.179 23.8351 21.603 22.4259 23.0125C20.9822 24.4565 18.5391 23.7592 18.0629 21.7672C17.6164 19.8998 19.3759 18.2055 21.261 18.6876ZM30.4507 18.687C32.4064 19.1872 33.0453 21.6658 31.5778 23.0594C29.9156 24.6379 27.2103 23.4756 27.2128 21.184C27.2146 19.4787 28.7915 18.2627 30.4507 18.687ZM20.3527 20.0625C19.6286 20.2156 19.2362 21.0339 19.5658 21.7034C20.0756 22.739 21.6605 22.4351 21.7427 21.286C21.7979 20.5151 21.1032 19.9038 20.3527 20.0625ZM29.4445 20.0941C28.7904 20.3294 28.467 21.0725 28.7493 21.6916C29.1037 22.4691 30.2053 22.6005 30.7344 21.9284C31.4701 20.9939 30.5561 19.6941 29.4445 20.0941ZM24.8652 23.6666C24.5979 23.9584 24.4443 24.0019 23.9605 23.9225C23.7967 23.8956 23.7382 23.9438 23.8003 24.0543C23.9573 24.3336 24.4873 24.3245 24.9213 24.0349C25.1011 23.9149 25.1384 23.9149 25.336 24.0365C25.7807 24.3102 26.2263 24.3299 26.4194 24.0844C26.5424 23.9281 26.4935 23.9031 26.1101 23.9264C25.7055 23.951 25.6137 23.9177 25.3549 23.6527C25.1416 23.4344 25.0761 23.4363 24.8652 23.6666Z" fill="white"/>
</svg>
