<svg width="20" height="23" viewBox="0 0 20 23" fill="none" xmlns="http://www.w3.org/2000/svg">
<path d="M3.16846 18.4526C2.29964 18.4526 1.64665 18.2368 1.20947 17.8052C0.777832 17.3791 0.562012 16.7371 0.562012 15.8794V7.60352C0.562012 6.74577 0.777832 6.10384 1.20947 5.67773C1.64665 5.24609 2.29964 5.03027 3.16846 5.03027H5.66699V6.3667H3.18506C2.77002 6.3667 2.45182 6.47738 2.23047 6.69873C2.00911 6.91455 1.89844 7.23828 1.89844 7.66992V15.813C1.89844 16.2446 2.00911 16.5711 2.23047 16.7925C2.45182 17.0083 2.77002 17.1162 3.18506 17.1162H12.6646C13.0741 17.1162 13.3923 17.0083 13.6191 16.7925C13.846 16.5711 13.9595 16.2446 13.9595 15.813V7.66992C13.9595 7.23828 13.846 6.91455 13.6191 6.69873C13.3923 6.47738 13.0741 6.3667 12.6646 6.3667H10.1909V5.03027H12.6895C13.5583 5.03027 14.2085 5.24609 14.6401 5.67773C15.0773 6.10384 15.2959 6.74577 15.2959 7.60352V15.8794C15.2959 16.7371 15.0773 17.3791 14.6401 17.8052C14.2085 18.2368 13.5583 18.4526 12.6895 18.4526H3.16846ZM8.01611 22.2959C7.1473 22.2959 6.4943 22.0801 6.05713 21.6484C5.62549 21.2223 5.40967 20.5804 5.40967 19.7227V17.7803H6.74609V19.6562C6.74609 20.0879 6.85954 20.4116 7.08643 20.6274C7.31331 20.8488 7.63151 20.9595 8.04102 20.9595H16.8149C17.23 20.9595 17.5482 20.8488 17.7695 20.6274C17.9909 20.4116 18.1016 20.0879 18.1016 19.6562V11.5132C18.1016 11.0815 17.9909 10.7578 17.7695 10.542C17.5482 10.3206 17.23 10.21 16.8149 10.21H14.8643V8.87354H16.8315C17.7004 8.87354 18.3506 9.08936 18.7822 9.521C19.2194 9.9471 19.438 10.589 19.438 11.4468V19.7227C19.438 20.5804 19.2194 21.2223 18.7822 21.6484C18.3506 22.0801 17.7004 22.2959 16.8315 22.2959H8.01611ZM7.9248 12.999C7.8418 12.999 7.76156 12.9824 7.68408 12.9492C7.61214 12.916 7.5319 12.8579 7.44336 12.7749L4.6377 10.0688C4.51042 9.93604 4.44678 9.78939 4.44678 9.62891C4.44678 9.46289 4.50212 9.32454 4.61279 9.21387C4.72347 9.10319 4.86735 9.04785 5.04443 9.04785C5.23258 9.04785 5.38477 9.11426 5.50098 9.24707L6.75439 10.5918L7.31885 11.1812L7.26904 9.93604V1.17871C7.26904 1.00716 7.33268 0.857747 7.45996 0.730469C7.59277 0.60319 7.74772 0.539551 7.9248 0.539551C8.10742 0.539551 8.26237 0.60319 8.38965 0.730469C8.52246 0.857747 8.58887 1.00716 8.58887 1.17871V9.93604L8.53906 11.1729L9.09521 10.5918L10.3569 9.24707C10.4731 9.11426 10.6226 9.04785 10.8052 9.04785C10.9767 9.04785 11.1206 9.10319 11.2368 9.21387C11.353 9.32454 11.4111 9.46289 11.4111 9.62891C11.4111 9.78939 11.3447 9.93604 11.2119 10.0688L8.40625 12.7749C8.32324 12.8579 8.243 12.916 8.16553 12.9492C8.09359 12.9824 8.01335 12.999 7.9248 12.999Z" fill="black" fill-opacity="0.5"/>
</svg>
