<svg width="24" height="24" viewBox="0 0 24 24" fill="none" xmlns="http://www.w3.org/2000/svg">
<rect x="2.5" y="2.5" width="19" height="19" rx="5" fill="url(#paint0_linear_1014_2303)"/>
<path d="M7.38623 9.84473L7.68701 9.17871C8.28857 9.8877 9.01367 10.4391 9.8623 10.833C10.7145 11.2269 11.6169 11.422 12.5693 11.4185C13.3034 11.4149 14.0088 11.2913 14.6855 11.0479C15.3623 10.8008 15.9782 10.4463 16.5332 9.98438L16.8394 10.5859C16.2342 11.0622 15.5664 11.4274 14.8359 11.6816C14.109 11.9359 13.3535 12.0648 12.5693 12.0684C11.9069 12.0684 11.2624 11.9824 10.6357 11.8105C10.0127 11.6351 9.42546 11.3809 8.87402 11.0479C8.32617 10.7148 7.83024 10.3138 7.38623 9.84473ZM6.81152 12.9116L6.97266 12.1812C7.64583 12.8042 8.38883 13.3001 9.20166 13.6689C10.0145 14.0342 10.856 14.2669 11.7261 14.3672C12.5998 14.4674 13.4699 14.4316 14.3364 14.2598C15.203 14.0843 16.0265 13.771 16.8071 13.3198L16.8232 14.0557C16.0176 14.4782 15.1761 14.7682 14.2988 14.9258C13.4215 15.0833 12.5407 15.112 11.6562 15.0117C10.7754 14.9115 9.92139 14.6859 9.09424 14.335C8.27067 13.9805 7.50977 13.506 6.81152 12.9116ZM9.47559 16.6016C9.33236 16.1898 9.22314 15.7726 9.14795 15.3501C9.07275 14.9276 9.03158 14.5015 9.02441 14.0718C8.97786 13.1551 9.06559 12.2635 9.2876 11.397C9.51318 10.5269 9.85872 9.71045 10.3242 8.94775C10.7897 8.18148 11.3608 7.49756 12.0376 6.896L12.7251 7.16455C12.0412 7.72314 11.4629 8.36947 10.9902 9.10352C10.5176 9.83398 10.1667 10.62 9.9375 11.4614C9.71191 12.3029 9.62419 13.1694 9.67432 14.061C9.68148 14.5301 9.7334 14.992 9.83008 15.4468C9.92676 15.9015 10.0646 16.3455 10.2437 16.7788L9.47559 16.6016ZM13.0151 17.1333C12.4959 16.3813 12.1003 15.5721 11.8281 14.7056C11.556 13.8354 11.4199 12.9367 11.4199 12.0093C11.4199 11.1463 11.5399 10.3049 11.7798 9.48486C12.0197 8.66488 12.3688 7.89502 12.8271 7.17529L13.4609 7.40088C13.0062 8.07764 12.6606 8.80632 12.4243 9.58691C12.188 10.3675 12.0698 11.175 12.0698 12.0093C12.0698 12.8866 12.2023 13.7388 12.4673 14.5659C12.7358 15.3895 13.1208 16.1558 13.6221 16.8647L13.0151 17.1333ZM16.1787 15.1353C15.5342 14.7485 14.9756 14.2705 14.5029 13.7012C14.0303 13.1283 13.665 12.4945 13.4072 11.7998C13.1494 11.1016 13.0151 10.3711 13.0044 9.6084C13.0008 9.19661 13.033 8.79378 13.1011 8.3999C13.1691 8.00244 13.2747 7.61572 13.418 7.23975L14.0464 7.41699C13.9103 7.76074 13.8101 8.11702 13.7456 8.48584C13.6812 8.85465 13.6507 9.22705 13.6543 9.60303C13.665 10.3049 13.7904 10.9744 14.0303 11.6118C14.2738 12.2492 14.6139 12.8275 15.0508 13.3467C15.4912 13.8659 16.0122 14.2974 16.6138 14.6411L16.1787 15.1353ZM9.66895 12.0039C9.43262 12.0039 9.2321 11.9215 9.06738 11.7568C8.90625 11.5921 8.82568 11.3934 8.82568 11.1606C8.82568 10.9279 8.90625 10.731 9.06738 10.5698C9.2321 10.4051 9.43262 10.3228 9.66895 10.3228C9.89811 10.3228 10.0933 10.4051 10.2544 10.5698C10.4191 10.731 10.5015 10.9279 10.5015 11.1606C10.5015 11.3934 10.4191 11.5921 10.2544 11.7568C10.0933 11.9215 9.89811 12.0039 9.66895 12.0039ZM13.7832 12.4497C13.5505 12.4497 13.3535 12.3691 13.1924 12.208C13.0312 12.0433 12.9507 11.8464 12.9507 11.6172C12.9507 11.3916 13.0312 11.1982 13.1924 11.0371C13.3535 10.876 13.5505 10.7954 13.7832 10.7954C14.0088 10.7954 14.2021 10.876 14.3633 11.0371C14.5244 11.1982 14.605 11.3916 14.605 11.6172C14.605 11.8464 14.5244 12.0433 14.3633 12.208C14.2021 12.3691 14.0088 12.4497 13.7832 12.4497ZM12.1826 15.5542C11.9463 15.5542 11.7458 15.4736 11.5811 15.3125C11.4199 15.1478 11.3394 14.9491 11.3394 14.7163C11.3394 14.4836 11.4199 14.2866 11.5811 14.1255C11.7458 13.9608 11.9463 13.8784 12.1826 13.8784C12.4118 13.8784 12.6069 13.9608 12.7681 14.1255C12.9328 14.2866 13.0151 14.4836 13.0151 14.7163C13.0151 14.9491 12.9328 15.1478 12.7681 15.3125C12.6069 15.4736 12.4118 15.5542 12.1826 15.5542ZM12 17.6006C11.2516 17.6006 10.5462 17.4574 9.88379 17.1709C9.22493 16.8844 8.64307 16.4888 8.13818 15.9839C7.6333 15.479 7.23763 14.8971 6.95117 14.2383C6.66471 13.5758 6.52148 12.8704 6.52148 12.1221C6.52148 11.3737 6.66471 10.6701 6.95117 10.0112C7.23763 9.3488 7.63151 8.76514 8.13281 8.26025C8.6377 7.75537 9.21956 7.3597 9.87842 7.07324C10.5409 6.78678 11.2463 6.64355 11.9946 6.64355C12.743 6.64355 13.4484 6.78678 14.1108 7.07324C14.7733 7.3597 15.3569 7.75537 15.8618 8.26025C16.3667 8.76514 16.7624 9.3488 17.0488 10.0112C17.3353 10.6701 17.4785 11.3737 17.4785 12.1221C17.4785 12.8704 17.3353 13.5758 17.0488 14.2383C16.7624 14.8971 16.3667 15.479 15.8618 15.9839C15.3569 16.4888 14.7733 16.8844 14.1108 17.1709C13.452 17.4574 12.7484 17.6006 12 17.6006ZM12 16.8701C12.6481 16.8701 13.2586 16.7448 13.8315 16.4941C14.4045 16.2471 14.9093 15.9051 15.3462 15.4683C15.783 15.0314 16.125 14.5265 16.3721 13.9536C16.6227 13.3807 16.748 12.7702 16.748 12.1221C16.748 11.474 16.6227 10.8634 16.3721 10.2905C16.125 9.71761 15.7812 9.21273 15.3408 8.77588C14.904 8.33903 14.3991 7.99707 13.8262 7.75C13.2533 7.49935 12.6427 7.37402 11.9946 7.37402C11.3465 7.37402 10.736 7.49935 10.1631 7.75C9.59017 7.99707 9.08529 8.33903 8.64844 8.77588C8.21517 9.21273 7.87321 9.71761 7.62256 10.2905C7.37549 10.8634 7.25195 11.474 7.25195 12.1221C7.25195 12.7702 7.37549 13.3807 7.62256 13.9536C7.87321 14.5265 8.21696 15.0314 8.65381 15.4683C9.09066 15.9051 9.59554 16.2471 10.1685 16.4941C10.7414 16.7448 11.3519 16.8701 12 16.8701Z" fill="white"/>
<defs>
<linearGradient id="paint0_linear_1014_2303" x1="2.5" y1="2.5" x2="2.5" y2="21.5" gradientUnits="userSpaceOnUse">
<stop stop-color="#35E461"/>
<stop offset="1" stop-color="#34C734"/>
</linearGradient>
</defs>
</svg>
