<svg width="24" height="24" viewBox="0 0 24 24" fill="none" xmlns="http://www.w3.org/2000/svg">
<rect x="2.5" y="2.5" width="19" height="19" rx="5" fill="url(#paint0_linear_1014_2312)"/>
<path d="M9.55615 11.4131H14.4438C14.5405 11.4131 14.6229 11.3791 14.6909 11.311C14.759 11.243 14.793 11.1624 14.793 11.0693C14.793 10.9727 14.759 10.8903 14.6909 10.8223C14.6229 10.7507 14.5405 10.7148 14.4438 10.7148H9.55615C9.45947 10.7148 9.37712 10.7507 9.30908 10.8223C9.24105 10.8903 9.20703 10.9727 9.20703 11.0693C9.20703 11.1624 9.24105 11.243 9.30908 11.311C9.37712 11.3791 9.45947 11.4131 9.55615 11.4131ZM9.55615 13.3789H14.4438C14.5405 13.3789 14.6229 13.3449 14.6909 13.2769C14.759 13.2088 14.793 13.1265 14.793 13.0298C14.793 12.9331 14.759 12.8525 14.6909 12.7881C14.6229 12.7201 14.5405 12.686 14.4438 12.686H9.55615C9.45947 12.686 9.37712 12.7201 9.30908 12.7881C9.24105 12.8525 9.20703 12.9331 9.20703 13.0298C9.20703 13.1265 9.24105 13.2088 9.30908 13.2769C9.37712 13.3449 9.45947 13.3789 9.55615 13.3789ZM9.55615 15.4521H12.0161C12.1092 15.4521 12.1898 15.4181 12.2578 15.3501C12.3258 15.2785 12.3599 15.1961 12.3599 15.103C12.3599 15.0063 12.3258 14.9258 12.2578 14.8613C12.1934 14.7933 12.1128 14.7593 12.0161 14.7593H9.55615C9.45947 14.7593 9.37712 14.7933 9.30908 14.8613C9.24105 14.9258 9.20703 15.0063 9.20703 15.103C9.20703 15.1961 9.24105 15.2785 9.30908 15.3501C9.37712 15.4181 9.45947 15.4521 9.55615 15.4521ZM9.14795 18.3203C8.59294 18.3203 8.17578 18.1789 7.89648 17.896C7.62077 17.6167 7.48291 17.196 7.48291 16.6338V8.48584C7.48291 7.92367 7.61898 7.50293 7.89111 7.22363C8.16325 6.94076 8.56429 6.79932 9.09424 6.79932H9.21777C9.21777 6.81006 9.21777 6.82259 9.21777 6.83691C9.21777 6.84766 9.21777 6.8584 9.21777 6.86914V7.50293C9.21777 7.83952 9.32161 8.11702 9.5293 8.33545C9.73698 8.55029 10.0073 8.65771 10.3403 8.65771H13.6597C13.9927 8.65771 14.263 8.55029 14.4707 8.33545C14.6784 8.11702 14.7822 7.83952 14.7822 7.50293V6.86914C14.7822 6.8584 14.7822 6.84766 14.7822 6.83691C14.7822 6.82259 14.7822 6.81006 14.7822 6.79932H14.9058C15.4357 6.79932 15.8368 6.94076 16.1089 7.22363C16.381 7.50293 16.5171 7.92367 16.5171 8.48584V16.6338C16.5171 17.196 16.3774 17.6167 16.0981 17.896C15.8224 18.1789 15.4071 18.3203 14.8521 18.3203H9.14795ZM10.3403 8.03467C10.1828 8.03467 10.0592 7.98812 9.96973 7.89502C9.88379 7.80192 9.84082 7.67122 9.84082 7.50293V6.93896C9.84082 6.77067 9.88379 6.63997 9.96973 6.54688C10.0592 6.45378 10.1828 6.40723 10.3403 6.40723H10.8345C10.8524 6.10286 10.9723 5.84326 11.1943 5.62842C11.4199 5.41357 11.6885 5.30615 12 5.30615C12.3115 5.30615 12.5783 5.41357 12.8003 5.62842C13.0259 5.84326 13.1476 6.10286 13.1655 6.40723H13.6597C13.8172 6.40723 13.939 6.45378 14.0249 6.54688C14.1144 6.63997 14.1592 6.77067 14.1592 6.93896V7.50293C14.1592 7.67122 14.1144 7.80192 14.0249 7.89502C13.939 7.98812 13.8172 8.03467 13.6597 8.03467H10.3403ZM12 6.91748C12.1289 6.91748 12.2381 6.87093 12.3276 6.77783C12.4207 6.68473 12.4673 6.57552 12.4673 6.4502C12.4673 6.31771 12.4207 6.20671 12.3276 6.11719C12.2381 6.02409 12.1289 5.97754 12 5.97754C11.8711 5.97754 11.7601 6.02409 11.667 6.11719C11.5775 6.20671 11.5327 6.31771 11.5327 6.4502C11.5327 6.57552 11.5775 6.68473 11.667 6.77783C11.7601 6.87093 11.8711 6.91748 12 6.91748Z" fill="white"/>
<defs>
<linearGradient id="paint0_linear_1014_2312" x1="2.5" y1="2.5" x2="2.5" y2="21.5" gradientUnits="userSpaceOnUse">
<stop stop-color="#FF6969"/>
<stop offset="1" stop-color="#FF3B30"/>
</linearGradient>
</defs>
</svg>
