<svg width="24" height="24" viewBox="0 0 24 24" fill="none" xmlns="http://www.w3.org/2000/svg">
<rect x="2.5" y="2.5" width="19" height="19" rx="5" fill="url(#paint0_linear_1014_2300)"/>
<path d="M9.1748 17.187C8.7487 17.187 8.36198 17.0939 8.01465 16.9077C7.66732 16.7251 7.38981 16.4673 7.18213 16.1343C6.97803 15.8049 6.87598 15.4199 6.87598 14.9795C6.87598 14.5391 6.97803 14.1541 7.18213 13.8247C7.38981 13.4917 7.66732 13.2339 8.01465 13.0513C8.36198 12.8651 8.7487 12.772 9.1748 12.772H14.8198C15.2459 12.772 15.6326 12.8651 15.98 13.0513C16.3273 13.2339 16.603 13.4917 16.8071 13.8247C17.0148 14.1541 17.1187 14.5391 17.1187 14.9795C17.1187 15.4199 17.0148 15.8049 16.8071 16.1343C16.603 16.4673 16.3273 16.7251 15.98 16.9077C15.6326 17.0939 15.2459 17.187 14.8198 17.187H9.1748ZM14.9595 16.376C15.2137 16.376 15.4465 16.3133 15.6577 16.188C15.869 16.0627 16.0373 15.8926 16.1626 15.6777C16.2879 15.4629 16.3524 15.2266 16.356 14.9688C16.356 14.7145 16.2933 14.4836 16.168 14.2759C16.0426 14.0646 15.8743 13.8963 15.6631 13.771C15.4518 13.6457 15.2173 13.583 14.9595 13.583C14.7017 13.583 14.4671 13.6457 14.2559 13.771C14.0446 13.8963 13.8763 14.0646 13.751 14.2759C13.6292 14.4871 13.5684 14.7199 13.5684 14.9741C13.5684 15.2319 13.6292 15.4665 13.751 15.6777C13.8763 15.889 14.0446 16.0573 14.2559 16.1826C14.4671 16.3079 14.7017 16.3724 14.9595 16.376ZM9.39502 11.9448C8.93311 11.9448 8.51058 11.8428 8.12744 11.6387C7.74788 11.4346 7.44352 11.1481 7.21436 10.7793C6.98877 10.4105 6.87598 9.98258 6.87598 9.49561C6.87598 9.00863 6.98877 8.58073 7.21436 8.21191C7.44352 7.8431 7.74788 7.55664 8.12744 7.35254C8.51058 7.14844 8.93311 7.04639 9.39502 7.04639H14.5996C15.0615 7.04639 15.4823 7.14844 15.8618 7.35254C16.245 7.55664 16.5493 7.8431 16.7749 8.21191C17.0041 8.58073 17.1187 9.00863 17.1187 9.49561C17.1187 9.98258 17.0041 10.4105 16.7749 10.7793C16.5493 11.1481 16.245 11.4346 15.8618 11.6387C15.4823 11.8428 15.0615 11.9448 14.5996 11.9448H9.39502ZM9.39502 11.1338H14.5996C14.9004 11.1338 15.1797 11.0658 15.4375 10.9297C15.6989 10.79 15.9084 10.5985 16.0659 10.355C16.2271 10.1079 16.3076 9.82145 16.3076 9.49561C16.3076 9.16976 16.2271 8.88509 16.0659 8.6416C15.9084 8.39453 15.6989 8.20296 15.4375 8.06689C15.1797 7.92725 14.9004 7.85742 14.5996 7.85742H9.39502C9.09424 7.85742 8.81315 7.92725 8.55176 8.06689C8.29395 8.20296 8.08447 8.39453 7.92334 8.6416C7.76579 8.88509 7.68701 9.16976 7.68701 9.49561C7.68701 9.82145 7.76579 10.1079 7.92334 10.355C8.08447 10.5985 8.29395 10.79 8.55176 10.9297C8.81315 11.0658 9.09424 11.1338 9.39502 11.1338ZM9.39502 10.7686C9.15869 10.7686 8.94385 10.7113 8.75049 10.5967C8.55713 10.4821 8.40316 10.3281 8.28857 10.1348C8.17757 9.94141 8.12207 9.72656 8.12207 9.49023C8.12207 9.25749 8.17757 9.04443 8.28857 8.85107C8.40316 8.65771 8.55713 8.50374 8.75049 8.38916C8.94385 8.27458 9.15869 8.21729 9.39502 8.21729C9.63135 8.21729 9.84619 8.27458 10.0396 8.38916C10.2365 8.50016 10.3923 8.65234 10.5068 8.8457C10.6214 9.03548 10.6769 9.24854 10.6733 9.48486C10.6733 9.72119 10.6143 9.93783 10.4961 10.1348C10.3815 10.3281 10.2275 10.4839 10.0342 10.6021C9.8444 10.7166 9.63135 10.7721 9.39502 10.7686Z" fill="white"/>
<defs>
<linearGradient id="paint0_linear_1014_2300" x1="2.5" y1="2.5" x2="2.5" y2="21.5" gradientUnits="userSpaceOnUse">
<stop stop-color="#9D82FF"/>
<stop offset="1" stop-color="#5856D6"/>
</linearGradient>
</defs>
</svg>
