<svg width="24" height="24" viewBox="0 0 24 24" fill="none" xmlns="http://www.w3.org/2000/svg">
<rect x="2.5" y="2.5" width="19" height="19" rx="5" fill="url(#paint0_linear_1014_2297)"/>
<path d="M12 16.5908C11.9391 16.5908 11.8783 16.5729 11.8174 16.5371C11.7565 16.5013 11.6742 16.4333 11.5703 16.333L10.2651 15.0762C10.2222 15.0368 10.1953 14.9938 10.1846 14.9473C10.1774 14.9007 10.1864 14.856 10.2114 14.813C10.3869 14.5802 10.6322 14.3761 10.9473 14.2007C11.2624 14.0252 11.6133 13.9375 12 13.9375C12.376 13.9375 12.7197 14.0216 13.0312 14.1899C13.3464 14.3582 13.5916 14.5552 13.7671 14.7808C13.8065 14.8273 13.8208 14.8792 13.8101 14.9365C13.8029 14.9902 13.7796 15.0368 13.7402 15.0762L12.4297 16.333C12.3258 16.4368 12.2435 16.5049 12.1826 16.5371C12.1217 16.5729 12.0609 16.5908 12 16.5908ZM8.85791 13.6689L8.02539 12.8364C7.97884 12.7899 7.95378 12.7397 7.9502 12.686C7.9502 12.6323 7.96989 12.5822 8.00928 12.5356C8.28141 12.2026 8.62158 11.9054 9.02979 11.644C9.43799 11.3826 9.89453 11.1768 10.3994 11.0264C10.9079 10.8724 11.4414 10.7954 12 10.7954C12.5586 10.7954 13.0903 10.8724 13.5952 11.0264C14.1037 11.1768 14.562 11.3826 14.9702 11.644C15.382 11.9054 15.7222 12.2026 15.9907 12.5356C16.0301 12.5822 16.048 12.6341 16.0444 12.6914C16.0409 12.7451 16.0176 12.7935 15.9746 12.8364L15.1421 13.6636C15.0848 13.7173 15.0239 13.7441 14.9595 13.7441C14.8986 13.7441 14.8431 13.7173 14.793 13.6636C14.4635 13.3055 14.0518 13.0083 13.5576 12.772C13.0635 12.5321 12.5443 12.4139 12 12.4175C11.4629 12.4139 10.9473 12.5285 10.4531 12.7612C9.95898 12.994 9.55078 13.2894 9.22852 13.6475C9.1748 13.7048 9.11393 13.737 9.0459 13.7441C8.97786 13.7477 8.9152 13.7227 8.85791 13.6689ZM6.62891 11.4238L5.8877 10.6719C5.84473 10.6217 5.82145 10.5698 5.81787 10.5161C5.81787 10.4624 5.83577 10.4123 5.87158 10.3657C6.29053 9.84652 6.82048 9.38281 7.46143 8.97461C8.10238 8.56641 8.81136 8.24593 9.58838 8.01318C10.3654 7.78044 11.1693 7.66406 12 7.66406C12.8307 7.66406 13.6346 7.78223 14.4116 8.01855C15.1886 8.2513 15.8976 8.57178 16.5386 8.97998C17.1795 9.3846 17.7095 9.84652 18.1284 10.3657C18.1678 10.4123 18.1857 10.4624 18.1821 10.5161C18.1821 10.5698 18.1589 10.6217 18.1123 10.6719L17.3711 11.4131C17.3174 11.4668 17.2583 11.4954 17.1938 11.499C17.1294 11.499 17.0721 11.474 17.022 11.4238C16.3667 10.722 15.6112 10.1885 14.7554 9.82324C13.8996 9.45801 12.9811 9.27539 12 9.27539C11.026 9.27539 10.1112 9.45801 9.25537 9.82324C8.40316 10.1849 7.64762 10.7166 6.98877 11.4185C6.93864 11.4722 6.87956 11.5008 6.81152 11.5044C6.74349 11.5044 6.68262 11.4775 6.62891 11.4238Z" fill="white"/>
<defs>
<linearGradient id="paint0_linear_1014_2297" x1="2.5" y1="2.5" x2="2.5" y2="21.5" gradientUnits="userSpaceOnUse">
<stop stop-color="#0FB7FA"/>
<stop offset="1" stop-color="#0072FB"/>
</linearGradient>
</defs>
</svg>
