<svg width="24" height="24" viewBox="0 0 24 24" fill="none" xmlns="http://www.w3.org/2000/svg">
<rect x="2.5" y="2.5" width="19" height="19" rx="5" fill="url(#paint0_linear_1014_2309)"/>
<path d="M6.5376 13.5938C6.4445 13.5007 6.37646 13.3825 6.3335 13.2393C6.29411 13.096 6.29232 12.9438 6.32812 12.7827C6.36393 12.618 6.44987 12.4587 6.58594 12.3047C6.61816 12.2689 6.66292 12.2223 6.72021 12.165C6.77751 12.1077 6.84733 12.0379 6.92969 11.9556C7.01562 11.8732 7.11589 11.7765 7.23047 11.6655C7.34505 11.5545 7.47575 11.4256 7.62256 11.2788C8.729 10.1867 9.67253 9.30046 10.4531 8.62012C11.2373 7.93978 11.9015 7.44385 12.4458 7.13232C12.9937 6.81722 13.4609 6.66862 13.8477 6.68652C14.238 6.70443 14.5889 6.86556 14.9004 7.16992C15.1296 7.39193 15.2477 7.65332 15.2549 7.9541C15.262 8.2513 15.1779 8.59326 15.0024 8.97998C14.827 9.3667 14.5781 9.80355 14.2559 10.2905C13.9372 10.7739 13.5666 11.311 13.144 11.9019C12.7824 12.4067 12.4744 12.8364 12.2202 13.1909C11.966 13.5454 11.7583 13.8408 11.5972 14.0771C11.436 14.3135 11.3161 14.505 11.2373 14.6519C11.1621 14.7951 11.1209 14.9097 11.1138 14.9956C11.1102 15.078 11.1353 15.1478 11.189 15.2051C11.2391 15.2552 11.3107 15.2731 11.4038 15.2588C11.5005 15.2445 11.633 15.1872 11.8013 15.0869C11.9731 14.9831 12.1951 14.8237 12.4673 14.6089C12.7394 14.394 13.0778 14.1076 13.4824 13.7495C13.9121 13.3735 14.2952 13.0459 14.6318 12.7666C14.972 12.4873 15.2764 12.2725 15.5449 12.1221C15.8171 11.9681 16.0641 11.8929 16.2861 11.8965C16.5117 11.9001 16.7212 11.9967 16.9146 12.1865C17.0614 12.3298 17.1509 12.4855 17.1831 12.6538C17.2189 12.8221 17.2082 13.0101 17.1509 13.2178C17.0972 13.4219 17.0076 13.6493 16.8823 13.8999C16.757 14.1506 16.6084 14.4281 16.4365 14.7324C16.2539 15.0547 16.1035 15.325 15.9854 15.5435C15.8708 15.7583 15.7938 15.9284 15.7544 16.0537C15.715 16.179 15.7204 16.265 15.7705 16.3115C15.8135 16.3545 15.894 16.3545 16.0122 16.3115C16.1304 16.2721 16.2826 16.1844 16.4688 16.0483C16.6585 15.9123 16.8787 15.7225 17.1294 15.479C17.201 15.411 17.2816 15.3734 17.3711 15.3662C17.4606 15.359 17.5394 15.3895 17.6074 15.4575C17.679 15.5291 17.7059 15.6133 17.688 15.71C17.6701 15.8066 17.6164 15.8997 17.5269 15.9893C17.0148 16.4906 16.5583 16.7967 16.1572 16.9077C15.7598 17.0187 15.4536 16.9668 15.2388 16.752C15.0848 16.5944 15.0007 16.4189 14.9863 16.2256C14.972 16.0358 15.0042 15.8335 15.083 15.6187C15.1618 15.4002 15.2656 15.1782 15.3945 14.9526C15.527 14.7271 15.6577 14.5033 15.7866 14.2812C15.9227 14.0485 16.0391 13.8426 16.1357 13.6636C16.2324 13.4845 16.2969 13.3359 16.3291 13.2178C16.3613 13.0996 16.347 13.0119 16.2861 12.9546C16.2074 12.8722 16.0677 12.8919 15.8672 13.0137C15.6702 13.1354 15.425 13.3234 15.1313 13.5776C14.8413 13.8283 14.5173 14.113 14.1592 14.4316C13.5182 14.9902 12.9489 15.4432 12.4512 15.7905C11.957 16.1379 11.5238 16.3455 11.1514 16.4136C10.779 16.4852 10.4603 16.3867 10.1953 16.1182C9.99479 15.9212 9.882 15.6974 9.85693 15.4468C9.83187 15.1925 9.87663 14.9132 9.99121 14.6089C10.1094 14.3045 10.2795 13.9733 10.5015 13.6152C10.7235 13.2572 10.9831 12.8722 11.2803 12.4604C11.5811 12.0451 11.8997 11.6011 12.2363 11.1284C12.4619 10.8169 12.6821 10.5072 12.897 10.1992C13.1118 9.8877 13.2998 9.59945 13.4609 9.33447C13.6221 9.06592 13.7331 8.83854 13.7939 8.65234C13.8584 8.46257 13.853 8.33366 13.7778 8.26562C13.6812 8.17969 13.4985 8.22266 13.23 8.39453C12.9614 8.56283 12.6141 8.84033 12.188 9.22705C11.7655 9.61019 11.2713 10.0828 10.7056 10.645C10.1434 11.2036 9.52035 11.8302 8.83643 12.5249C8.6932 12.6681 8.56608 12.797 8.45508 12.9116C8.34408 13.0226 8.2474 13.1211 8.16504 13.207C8.08268 13.2894 8.01286 13.3592 7.95557 13.4165C7.89827 13.4738 7.85173 13.5186 7.81592 13.5508C7.67269 13.6797 7.51872 13.762 7.354 13.7979C7.19287 13.8337 7.0389 13.8319 6.89209 13.7925C6.74886 13.7531 6.6307 13.6868 6.5376 13.5938Z" fill="white"/>
<defs>
<linearGradient id="paint0_linear_1014_2309" x1="2.5" y1="2.5" x2="2.5" y2="21.5" gradientUnits="userSpaceOnUse">
<stop stop-color="#FB4982"/>
<stop offset="1" stop-color="#F5234B"/>
</linearGradient>
</defs>
</svg>
