<svg width="24" height="24" viewBox="0 0 24 24" fill="none" xmlns="http://www.w3.org/2000/svg">
<rect x="2.5" y="2.5" width="19" height="19" rx="5" fill="url(#paint0_linear_1014_2318)"/>
<path d="M11.5059 17.7349C11.3662 17.7349 11.248 17.6955 11.1514 17.6167C11.0547 17.5415 10.9902 17.4341 10.958 17.2944L10.6787 16.1128C10.5749 16.077 10.4728 16.0394 10.3726 16C10.2723 15.9606 10.1774 15.9194 10.0879 15.8765L9.05664 16.5103C8.93848 16.5819 8.81673 16.6123 8.69141 16.6016C8.56966 16.5908 8.46045 16.5371 8.36377 16.4404L7.67627 15.7529C7.57959 15.6562 7.52409 15.5435 7.50977 15.4146C7.49902 15.2856 7.53304 15.1639 7.61182 15.0493L8.24023 14.0234C8.19727 13.9303 8.15609 13.8354 8.1167 13.7388C8.07731 13.6421 8.04329 13.5454 8.01465 13.4487L6.82227 13.1641C6.68262 13.1354 6.5752 13.0728 6.5 12.9761C6.4248 12.8794 6.38721 12.7612 6.38721 12.6216V11.6494C6.38721 11.5133 6.4248 11.397 6.5 11.3003C6.5752 11.2036 6.68262 11.141 6.82227 11.1123L8.00391 10.8276C8.03613 10.7166 8.07194 10.6128 8.11133 10.5161C8.1543 10.4194 8.19368 10.3281 8.22949 10.2422L7.60107 9.2002C7.5223 9.08561 7.48828 8.96745 7.49902 8.8457C7.50977 8.72038 7.56527 8.60938 7.66553 8.5127L8.36377 7.81982C8.46403 7.72673 8.57145 7.67301 8.68604 7.65869C8.8042 7.64437 8.92236 7.67122 9.04053 7.73926L10.0825 8.38379C10.172 8.33724 10.2669 8.29427 10.3672 8.25488C10.471 8.21191 10.5749 8.17253 10.6787 8.13672L10.958 6.94971C10.9902 6.81364 11.0547 6.70622 11.1514 6.62744C11.248 6.54867 11.3662 6.50928 11.5059 6.50928H12.4941C12.6338 6.50928 12.752 6.54867 12.8486 6.62744C12.9453 6.70622 13.008 6.81364 13.0366 6.94971L13.3159 8.14746C13.4269 8.18327 13.5308 8.22087 13.6274 8.26025C13.7277 8.29964 13.8208 8.34261 13.9067 8.38916L14.9595 7.73926C15.0776 7.67122 15.194 7.64616 15.3086 7.66406C15.4232 7.67839 15.5306 7.73031 15.6309 7.81982L16.3345 8.5127C16.4347 8.60938 16.4884 8.72038 16.4956 8.8457C16.5063 8.96745 16.4741 9.08561 16.3989 9.2002L15.7651 10.2422C15.8009 10.3281 15.8385 10.4194 15.8779 10.5161C15.9209 10.6128 15.9603 10.7166 15.9961 10.8276L17.1777 11.1123C17.3138 11.141 17.4194 11.2036 17.4946 11.3003C17.5734 11.397 17.6128 11.5133 17.6128 11.6494V12.6216C17.6128 12.7612 17.5734 12.8794 17.4946 12.9761C17.4194 13.0728 17.3138 13.1354 17.1777 13.1641L15.9854 13.4487C15.9531 13.5454 15.9173 13.6421 15.8779 13.7388C15.8421 13.8354 15.8009 13.9303 15.7544 14.0234L16.3882 15.0493C16.467 15.1639 16.4992 15.2856 16.4849 15.4146C16.4741 15.5435 16.4204 15.6562 16.3237 15.7529L15.6309 16.4404C15.5342 16.5371 15.4232 16.5908 15.2979 16.6016C15.1761 16.6123 15.0579 16.5819 14.9434 16.5103L13.9067 15.8765C13.8172 15.9194 13.7223 15.9606 13.6221 16C13.5218 16.0394 13.4198 16.077 13.3159 16.1128L13.0366 17.2944C13.008 17.4341 12.9453 17.5415 12.8486 17.6167C12.752 17.6955 12.6338 17.7349 12.4941 17.7349H11.5059ZM12 14.0181C12.3473 14.0181 12.6642 13.9321 12.9507 13.7603C13.2407 13.5884 13.4699 13.3592 13.6382 13.0728C13.8101 12.7827 13.896 12.464 13.896 12.1167C13.896 11.7694 13.8101 11.4543 13.6382 11.1714C13.4699 10.8849 13.2407 10.6558 12.9507 10.4839C12.6642 10.312 12.3473 10.2261 12 10.2261C11.6527 10.2261 11.3358 10.312 11.0493 10.4839C10.7629 10.6558 10.5337 10.8849 10.3618 11.1714C10.1899 11.4543 10.104 11.7694 10.104 12.1167C10.104 12.464 10.1882 12.7827 10.3564 13.0728C10.5283 13.3592 10.7575 13.5884 11.0439 13.7603C11.334 13.9321 11.6527 14.0181 12 14.0181Z" fill="white"/>
<defs>
<linearGradient id="paint0_linear_1014_2318" x1="2.5" y1="2.5" x2="2.5" y2="21.5" gradientUnits="userSpaceOnUse">
<stop stop-color="#818181"/>
<stop offset="1" stop-color="#4A4A4A"/>
</linearGradient>
</defs>
</svg>
